<svg xmlns="http://www.w3.org/2000/svg" width="16" height="17" viewBox="0 0 16 17" fill="none">
  <path d="M9 3.16602C9 3.7183 8.55228 4.16602 8 4.16602C7.44772 4.16602 7 3.7183 7 3.16602C7 2.61373 7.44772 2.16602 8 2.16602C8.55228 2.16602 9 2.61373 9 3.16602Z" fill="black"/>
  <path d="M9 8.49935C9 9.05163 8.55228 9.49935 8 9.49935C7.44772 9.49935 7 9.05163 7 8.49935C7 7.94706 7.44772 7.49935 8 7.49935C8.55228 7.49935 9 7.94706 9 8.49935Z" fill="black"/>
  <path d="M8 14.8327C8.55228 14.8327 9 14.385 9 13.8327C9 13.2804 8.55228 12.8327 8 12.8327C7.44772 12.8327 7 13.2804 7 13.8327C7 14.385 7.44772 14.8327 8 14.8327Z" fill="black"/>
</svg>