<svg xmlns="http://www.w3.org/2000/svg" width="18" height="19" viewBox="0 0 18 19" fill="none">
  <path fill-rule="evenodd" clip-rule="evenodd" d="M6 2.75V4.34451C7.29392 4.67755 8.25 5.85212 8.25 7.25C8.25 8.64788 7.29392 9.82245 6 10.1555V16.25C6 16.6642 5.66421 17 5.25 17C4.83579 17 4.5 16.6642 4.5 16.25L4.5 10.1555C3.20608 9.82245 2.25 8.64788 2.25 7.25C2.25 5.85212 3.20608 4.67755 4.5 4.34451L4.5 2.75C4.5 2.33579 4.83579 2 5.25 2C5.66421 2 6 2.33579 6 2.75ZM3.75 7.25C3.75 6.42157 4.42157 5.75 5.25 5.75C6.07843 5.75 6.75 6.42157 6.75 7.25C6.75 8.07843 6.07843 8.75 5.25 8.75C4.42157 8.75 3.75 8.07843 3.75 7.25Z" fill="#475367"/>
  <path fill-rule="evenodd" clip-rule="evenodd" d="M12 14.6555V16.25C12 16.6642 12.3358 17 12.75 17C13.1642 17 13.5 16.6642 13.5 16.25V14.6555C14.7939 14.3225 15.75 13.1479 15.75 11.75C15.75 10.3521 14.7939 9.17755 13.5 8.84451V2.75C13.5 2.33579 13.1642 2 12.75 2C12.3358 2 12 2.33579 12 2.75V8.84451C10.7061 9.17755 9.75 10.3521 9.75 11.75C9.75 13.1479 10.7061 14.3225 12 14.6555ZM14.25 11.75C14.25 10.9216 13.5784 10.25 12.75 10.25C11.9216 10.25 11.25 10.9216 11.25 11.75C11.25 12.5784 11.9216 13.25 12.75 13.25C13.5784 13.25 14.25 12.5784 14.25 11.75Z" fill="#475367"/>
</svg>