<svg xmlns="http://www.w3.org/2000/svg" width="20" height="21" viewBox="0 0 20 21" fill="none">
  <path d="M13.9225 11.9219L10.5892 15.2553C10.2638 15.5807 9.73614 15.5807 9.4107 15.2553L6.07737 11.9219C5.75193 11.5965 5.75193 11.0689 6.07737 10.7434C6.40281 10.418 6.93045 10.418 7.25588 10.7434L9.16663 12.6542V2.99935C9.16663 2.53911 9.53972 2.16602 9.99996 2.16602C10.4602 2.16602 10.8333 2.53911 10.8333 2.99935V12.6542L12.744 10.7434C13.0695 10.418 13.5971 10.418 13.9225 10.7434C14.248 11.0689 14.248 11.5965 13.9225 11.9219Z" fill="#344054"/>
  <path d="M3.33329 15.0827C3.33329 14.6224 2.9602 14.2493 2.49996 14.2493C2.03972 14.2493 1.66663 14.6224 1.66663 15.0827V16.3327C1.66663 18.1736 3.15901 19.666 4.99996 19.666H15C16.8409 19.666 18.3333 18.1736 18.3333 16.3327V15.0827C18.3333 14.6224 17.9602 14.2493 17.5 14.2493C17.0397 14.2493 16.6666 14.6224 16.6666 15.0827V16.3327C16.6666 17.2532 15.9204 17.9993 15 17.9993H4.99996C4.07948 17.9993 3.33329 17.2532 3.33329 16.3327V15.0827Z" fill="#344054"/>
</svg>