<svg xmlns="http://www.w3.org/2000/svg" width="20" height="21" viewBox="0 0 20 21" fill="none">
  <path d="M3.33325 5.49935C3.33325 5.03911 3.70635 4.66602 4.16659 4.66602H15.8333C16.2935 4.66602 16.6666 5.03911 16.6666 5.49935C16.6666 5.95959 16.2935 6.33268 15.8333 6.33268H4.16659C3.70635 6.33268 3.33325 5.95959 3.33325 5.49935Z" fill="#344054"/>
  <path d="M4.99992 10.4993C4.99992 10.0391 5.37301 9.66602 5.83325 9.66602H14.1666C14.6268 9.66602 14.9999 10.0391 14.9999 10.4993C14.9999 10.9596 14.6268 11.3327 14.1666 11.3327H5.83325C5.37301 11.3327 4.99992 10.9596 4.99992 10.4993Z" fill="#344054"/>
  <path d="M7.49992 14.666C7.03968 14.666 6.66659 15.0391 6.66659 15.4993C6.66659 15.9596 7.03968 16.3327 7.49992 16.3327H12.4999C12.9602 16.3327 13.3333 15.9596 13.3333 15.4993C13.3333 15.0391 12.9602 14.666 12.4999 14.666H7.49992Z" fill="#344054"/>
</svg>