<svg xmlns="http://www.w3.org/2000/svg" width="21" height="20" viewBox="0 0 21 20" fill="none">
  <path fill-rule="evenodd" clip-rule="evenodd" d="M3.00016 5.83333C3.00016 4.91286 3.74635 4.16667 4.66683 4.16667H13.8335C14.2937 4.16667 14.6668 3.79357 14.6668 3.33333C14.6668 2.8731 14.2937 2.5 13.8335 2.5H4.66683C2.82588 2.5 1.3335 3.99238 1.3335 5.83333V15C1.3335 16.841 2.82588 18.3333 4.66683 18.3333H16.3335C18.1744 18.3333 19.6668 16.841 19.6668 15V8.33333C19.6668 7.8731 19.2937 7.5 18.8335 7.5C18.3733 7.5 18.0002 7.8731 18.0002 8.33333V12.2077L14.9534 8.39918C13.544 6.63752 10.8284 6.75537 9.57696 8.63249L8.62727 10.057C7.4919 9.43387 6.0595 9.78186 5.33976 10.8714L3.00016 14.413V5.83333ZM13.6519 9.44033L18.0002 14.8757V15C18.0002 15.9205 17.254 16.6667 16.3335 16.6667H7.78102C7.11545 16.6667 6.71845 15.9249 7.08765 15.3711L10.9637 9.55699C11.5894 8.61843 12.9472 8.55951 13.6519 9.44033ZM5.7009 14.4466C5.22784 15.1562 5.17409 15.9686 5.42333 16.6667H5.0835C4.62326 16.6667 4.25016 16.2936 4.25016 15.8333V15.7949C4.25016 15.6316 4.29816 15.4719 4.38818 15.3356L6.73039 11.79C6.9427 11.4686 7.34106 11.3408 7.6922 11.4596L5.7009 14.4466Z" fill="#F56630"/>
  <path d="M4.81933 7.3319C5.22023 7.46553 5.53482 7.78012 5.66846 8.18102C5.80446 8.58903 6.38158 8.58903 6.51758 8.18102C6.65121 7.78012 6.9658 7.46553 7.3667 7.3319C7.77471 7.19589 7.77471 6.61878 7.3667 6.48277C6.9658 6.34914 6.65121 6.03455 6.51758 5.63365C6.38158 5.22564 5.80446 5.22564 5.66846 5.63365C5.53482 6.03455 5.22023 6.34914 4.81933 6.48277C4.41132 6.61878 4.41132 7.19589 4.81933 7.3319Z" fill="#F56630"/>
  <path d="M18.0002 3.33333C18.0002 2.8731 17.6271 2.5 17.1668 2.5C16.7066 2.5 16.3335 2.8731 16.3335 3.33333V4.16667H15.5002C15.0399 4.16667 14.6668 4.53976 14.6668 5C14.6668 5.46024 15.0399 5.83333 15.5002 5.83333H16.3335V6.66667C16.3335 7.1269 16.7066 7.5 17.1668 7.5C17.6271 7.5 18.0002 7.1269 18.0002 6.66667V5.83333H18.8335C19.2937 5.83333 19.6668 5.46024 19.6668 5C19.6668 4.53976 19.2937 4.16667 18.8335 4.16667H18.0002V3.33333Z" fill="#F56630"/>
</svg>