<svg xmlns="http://www.w3.org/2000/svg" width="21" height="20" viewBox="0 0 21 20" fill="none">
  <path d="M11.3334 12.5007C11.3334 12.0404 10.9603 11.6673 10.5001 11.6673C10.0398 11.6673 9.66675 12.0404 9.66675 12.5007V14.1673C9.66675 14.6276 10.0398 15.0006 10.5001 15.0006C10.9603 15.0006 11.3334 14.6276 11.3334 14.1673V12.5007Z" fill="#667185"/>
  <path fill-rule="evenodd" clip-rule="evenodd" d="M15.5001 5.83398C15.5001 3.07256 13.2615 0.833984 10.5001 0.833984C7.73866 0.833984 5.50008 3.07256 5.50008 5.83398V7.50065C3.65913 7.50065 2.16675 8.99303 2.16675 10.834V15.834C2.16675 17.6749 3.65913 19.1673 5.50008 19.1673H15.5001C17.341 19.1673 18.8334 17.6749 18.8334 15.834V10.834C18.8334 8.99303 17.341 7.50065 15.5001 7.50065V5.83398ZM7.16675 5.83398C7.16675 3.99304 8.65913 2.50065 10.5001 2.50065C12.341 2.50065 13.8334 3.99304 13.8334 5.83398V7.50065H7.16675V5.83398ZM3.83341 10.834C3.83341 9.91351 4.57961 9.16732 5.50008 9.16732H15.5001C16.4206 9.16732 17.1667 9.91351 17.1667 10.834V15.834C17.1667 16.7545 16.4206 17.5006 15.5001 17.5006H5.50008C4.57961 17.5006 3.83341 16.7545 3.83341 15.834V10.834Z" fill="#667185"/>
</svg>