<svg xmlns="http://www.w3.org/2000/svg" width="20" height="21" viewBox="0 0 20 21" fill="none">
  <path d="M10.8333 7.99935C10.8333 7.53911 10.4602 7.16602 9.99996 7.16602C9.53972 7.16602 9.16663 7.53911 9.16663 7.99935V9.66602H7.49996C7.03972 9.66602 6.66663 10.0391 6.66663 10.4993C6.66663 10.9596 7.03972 11.3327 7.49996 11.3327H9.16663V12.9993C9.16663 13.4596 9.53972 13.8327 9.99996 13.8327C10.4602 13.8327 10.8333 13.4596 10.8333 12.9993V11.3327H12.5C12.9602 11.3327 13.3333 10.9596 13.3333 10.4993C13.3333 10.0391 12.9602 9.66602 12.5 9.66602H10.8333V7.99935Z" fill="white"/>
  <path fill-rule="evenodd" clip-rule="evenodd" d="M9.99996 2.16602C5.39759 2.16602 1.66663 5.89698 1.66663 10.4993C1.66663 15.1017 5.39759 18.8327 9.99996 18.8327C14.6023 18.8327 18.3333 15.1017 18.3333 10.4993C18.3333 5.89698 14.6023 2.16602 9.99996 2.16602ZM3.33329 10.4993C3.33329 6.81745 6.31806 3.83268 9.99996 3.83268C13.6819 3.83268 16.6666 6.81745 16.6666 10.4993C16.6666 14.1812 13.6819 17.166 9.99996 17.166C6.31806 17.166 3.33329 14.1812 3.33329 10.4993Z" fill="white"/>
</svg>