<svg xmlns="http://www.w3.org/2000/svg" width="24" height="25" viewBox="0 0 24 25" fill="none">
  <path d="M21.5306 20.9686L16.8366 16.2755C18.1971 14.6421 18.8755 12.547 18.7307 10.4262C18.5859 8.30531 17.629 6.32191 16.0591 4.88859C14.4892 3.45526 12.4272 2.68235 10.3019 2.73065C8.17666 2.77895 6.15184 3.64474 4.64867 5.14791C3.1455 6.65108 2.27971 8.6759 2.23141 10.8011C2.18311 12.9264 2.95602 14.9885 4.38935 16.5584C5.82268 18.1283 7.80607 19.0852 9.92694 19.23C12.0478 19.3748 14.1428 18.6963 15.7762 17.3358L20.4694 22.0299C20.5391 22.0995 20.6218 22.1548 20.7128 22.1925C20.8039 22.2302 20.9015 22.2497 21 22.2497C21.0985 22.2497 21.1961 22.2302 21.2872 22.1925C21.3782 22.1548 21.4609 22.0995 21.5306 22.0299C21.6003 21.9602 21.6556 21.8775 21.6933 21.7864C21.731 21.6954 21.7504 21.5978 21.7504 21.4992C21.7504 21.4007 21.731 21.3031 21.6933 21.2121C21.6556 21.121 21.6003 21.0383 21.5306 20.9686ZM3.75 10.9992C3.75 9.66421 4.14588 8.35917 4.88758 7.24914C5.62928 6.13911 6.68349 5.27394 7.91689 4.76305C9.15029 4.25216 10.5075 4.11849 11.8169 4.37894C13.1262 4.63939 14.329 5.28226 15.273 6.22627C16.217 7.17027 16.8599 8.37301 17.1203 9.68238C17.3808 10.9917 17.2471 12.3489 16.7362 13.5823C16.2253 14.8158 15.3601 15.87 14.2501 16.6117C13.1401 17.3534 11.835 17.7492 10.5 17.7492C8.7104 17.7473 6.99466 17.0355 5.72922 15.77C4.46378 14.5046 3.75199 12.7888 3.75 10.9992Z" fill="#728197"/>
</svg>