<svg width="26" height="26" viewBox="0 0 26 26" fill="none" xmlns="http://www.w3.org/2000/svg">
<g clip-path="url(#clip0_22_25319)">
<path d="M17.0653 5.86121C14.9752 4.65627 14.9752 1.62757 17.0653 0.422637C19.1553 -0.7823 21.7821 0.732047 21.7821 3.14192C21.7821 5.5518 19.1553 7.06609 17.0653 5.86121ZM14.0027 1.78434H0V2.65523H14.0027V1.78434ZM6.3182 5.21669H0V5.98516H6.31825L6.3182 5.21669ZM6.83054 14.1306H0V14.9502H6.83059V14.1306M4.67893 17.2556H0V18.0753H4.67893V17.2557M3.84729 25.6099C4.52882 24.6522 10.0546 16.6578 10.8397 16.466C11.6357 16.686 13.2612 17.1647 13.1321 17.3991C12.9679 17.6972 11.3534 19.8199 11.2405 20.3845C11.1275 20.9492 11.9745 22.5021 13.2986 21.5374C14.6228 20.5728 17.5135 16.9683 17.2029 16.1214C16.8923 15.2743 15.0504 14.0491 12.9909 13.2133C12.9344 13.0721 14.4873 11.5476 15.306 10.1359C15.4592 9.87176 18.2705 13.4957 19.174 13.3263C20.5439 13.0694 24.8541 9.43006 25.1082 8.72425C25.3623 8.01839 25.0747 7.19965 24.133 6.55361C23.1913 5.90757 20.8115 9.91005 19.3433 9.74064C18.3617 9.6274 17.7179 7.28501 15.3907 5.84445C13.3491 4.58066 10.1768 4.12083 9.40057 4.21772C8.52485 4.32705 6.41261 6.2962 3.5328 9.34536C2.597 10.3362 4.61002 12.1323 5.45264 11.5193C8.00262 9.66416 9.58841 7.35849 10.1727 7.37936C10.7569 7.40018 12.146 8.16723 12.146 8.16723C12.146 8.16723 2.68013 21.509 1.66933 23.5185C0.562301 25.7196 3.16575 26.5677 3.84729 25.6099Z" fill="#F56630"/>
</g>
<defs>
<clipPath id="clip0_22_25319">
<rect width="25.2383" height="26" fill="white"/>
</clipPath>
</defs>
</svg>
