<svg width="25" height="24" viewBox="0 0 25 24" fill="none" xmlns="http://www.w3.org/2000/svg">
<path d="M18.9331 22.75C17.9936 22.75 17.0753 22.4714 16.2941 21.9495C15.513 21.4275 14.9042 20.6857 14.5447 19.8177C14.1852 18.9498 14.0911 17.9947 14.2744 17.0733C14.4577 16.1519 14.9101 15.3055 15.5744 14.6412C16.2387 13.9769 17.085 13.5246 18.0064 13.3413C18.9278 13.158 19.8829 13.2521 20.7509 13.6116C21.6188 13.9711 22.3607 14.5799 22.8826 15.361C23.4045 16.1422 23.6831 17.0605 23.6831 18C23.6831 19.2598 23.1827 20.468 22.2919 21.3588C21.4011 22.2496 20.1929 22.75 18.9331 22.75ZM18.9331 14.75C18.2903 14.75 17.662 14.9406 17.1275 15.2977C16.593 15.6548 16.1765 16.1624 15.9305 16.7563C15.6845 17.3501 15.6202 18.0036 15.7456 18.634C15.871 19.2645 16.1805 19.8436 16.635 20.2981C17.0895 20.7526 17.6686 21.0622 18.2991 21.1876C18.9295 21.313 19.583 21.2486 20.1768 21.0026C20.7707 20.7566 21.2783 20.3401 21.6354 19.8056C21.9925 19.2711 22.1831 18.6428 22.1831 18C22.1805 17.1389 21.8372 16.3137 21.2283 15.7048C20.6194 15.0959 19.7943 14.7526 18.9331 14.75Z" fill="white"/>
<path d="M16.2931 21.75H3.93311C3.46979 21.7474 3.02619 21.5622 2.69857 21.2345C2.37095 20.9069 2.18573 20.4633 2.18311 20V3C2.18573 2.53668 2.37095 2.09309 2.69857 1.76546C3.02619 1.43784 3.46979 1.25263 3.93311 1.25H18.9331C19.3964 1.25263 19.84 1.43784 20.1676 1.76546C20.4953 2.09309 20.6805 2.53668 20.6831 3V14.13C20.6831 14.3289 20.6041 14.5197 20.4634 14.6603C20.3228 14.801 20.132 14.88 19.9331 14.88C19.7342 14.88 19.5434 14.801 19.4028 14.6603C19.2621 14.5197 19.1831 14.3289 19.1831 14.13V3C19.1831 2.9337 19.1568 2.87011 19.1099 2.82322C19.063 2.77634 18.9994 2.75 18.9331 2.75H3.93311C3.8668 2.75 3.80321 2.77634 3.75633 2.82322C3.70944 2.87011 3.68311 2.9337 3.68311 3V20C3.68311 20.0663 3.70944 20.1299 3.75633 20.1768C3.80321 20.2237 3.8668 20.25 3.93311 20.25H16.2931C16.492 20.25 16.6828 20.329 16.8234 20.4697C16.9641 20.6103 17.0431 20.8011 17.0431 21C17.0431 21.1989 16.9641 21.3897 16.8234 21.5303C16.6828 21.671 16.492 21.75 16.2931 21.75Z" fill="white"/>
<path d="M19.9331 20.14C19.8144 20.1388 19.6976 20.1103 19.5918 20.0565C19.486 20.0027 19.394 19.9252 19.3231 19.83L18.3231 18.44C18.2325 18.3111 18.1837 18.1575 18.1831 18V16C18.1831 15.8011 18.2621 15.6103 18.4028 15.4697C18.5434 15.329 18.7342 15.25 18.9331 15.25C19.132 15.25 19.3228 15.329 19.4634 15.4697C19.6041 15.6103 19.6831 15.8011 19.6831 16V17.76L20.5431 19C20.6429 19.1584 20.6807 19.348 20.6493 19.5325C20.618 19.717 20.5196 19.8835 20.3731 20C20.2458 20.0937 20.0912 20.1429 19.9331 20.14Z" fill="white"/>
<path d="M11.4331 15.75H6.43311C6.23419 15.75 6.04343 15.671 5.90278 15.5303C5.76212 15.3897 5.68311 15.1989 5.68311 15C5.68311 14.8011 5.76212 14.6103 5.90278 14.4697C6.04343 14.329 6.23419 14.25 6.43311 14.25H11.4331C11.632 14.25 11.8228 14.329 11.9634 14.4697C12.1041 14.6103 12.1831 14.8011 12.1831 15C12.1831 15.1989 12.1041 15.3897 11.9634 15.5303C11.8228 15.671 11.632 15.75 11.4331 15.75Z" fill="white"/>
<path d="M16.4331 11.25H6.43311C6.23419 11.25 6.04343 11.171 5.90278 11.0303C5.76212 10.8897 5.68311 10.6989 5.68311 10.5C5.68311 10.3011 5.76212 10.1103 5.90278 9.96967C6.04343 9.82902 6.23419 9.75 6.43311 9.75H16.4331C16.632 9.75 16.8228 9.82902 16.9634 9.96967C17.1041 10.1103 17.1831 10.3011 17.1831 10.5C17.1831 10.6989 17.1041 10.8897 16.9634 11.0303C16.8228 11.171 16.632 11.25 16.4331 11.25Z" fill="white"/>
<path d="M16.4331 6.75H6.43311C6.23419 6.75 6.04343 6.67098 5.90278 6.53033C5.76212 6.38968 5.68311 6.19891 5.68311 6C5.68311 5.80109 5.76212 5.61032 5.90278 5.46967C6.04343 5.32902 6.23419 5.25 6.43311 5.25H16.4331C16.632 5.25 16.8228 5.32902 16.9634 5.46967C17.1041 5.61032 17.1831 5.80109 17.1831 6C17.1831 6.19891 17.1041 6.38968 16.9634 6.53033C16.8228 6.67098 16.632 6.75 16.4331 6.75Z" fill="white"/>
</svg>
