<svg width="25" height="24" viewBox="0 0 25 24" fill="none" xmlns="http://www.w3.org/2000/svg">
<path fill-rule="evenodd" clip-rule="evenodd" d="M15.2279 2.38518C13.8506 1.42109 12.0174 1.42108 10.6402 2.38518L3.76258 7.19948C2.60396 8.01052 1.95974 9.37309 2.06821 10.7832L2.77323 19.9484C2.9062 21.677 4.4724 22.9334 6.18866 22.6882L9.35827 22.2354C10.8362 22.0243 11.934 20.7585 11.934 19.2656V18.0001C11.934 17.4479 12.3817 17.0001 12.934 17.0001C13.4863 17.0001 13.934 17.4479 13.934 18.0001V19.2656C13.934 20.7585 15.0318 22.0243 16.5097 22.2354L19.6794 22.6882C21.3956 22.9334 22.9618 21.677 23.0948 19.9484L23.7998 10.7832C23.9083 9.37309 23.2641 8.01052 22.1054 7.19949L15.2279 2.38518ZM11.7871 4.02364C12.4757 3.5416 13.3923 3.5416 14.0809 4.02365L20.9585 8.83795C21.5378 9.24347 21.8599 9.92475 21.8057 10.6298L21.1007 19.795C21.0564 20.3712 20.5343 20.79 19.9622 20.7083L16.7926 20.2555C16.2999 20.1851 15.934 19.7632 15.934 19.2656V18.0001C15.934 16.3433 14.5909 15.0001 12.934 15.0001C11.2772 15.0001 9.93401 16.3433 9.93401 18.0001V19.2656C9.93401 19.7632 9.56808 20.1851 9.07543 20.2555L5.90581 20.7083C5.33373 20.79 4.81166 20.3712 4.76734 19.795L4.06232 10.6298C4.00808 9.92475 4.3302 9.24347 4.90951 8.83795L11.7871 4.02364Z" fill="white"/>
</svg>
