<svg width="25" height="24" viewBox="0 0 25 24" fill="none" xmlns="http://www.w3.org/2000/svg">
<path fill-rule="evenodd" clip-rule="evenodd" d="M12.9325 6.00003C9.61878 6.00003 6.93249 8.68632 6.93249 12C6.93249 15.3137 9.61878 18 12.9325 18C16.2462 18 18.9325 15.3137 18.9325 12C18.9325 8.68632 16.2462 6.00003 12.9325 6.00003ZM8.93249 12C8.93249 9.79089 10.7233 8.00003 12.9325 8.00003C15.1416 8.00003 16.9325 9.79089 16.9325 12C16.9325 14.2092 15.1416 16 12.9325 16C10.7233 16 8.93249 14.2092 8.93249 12Z" fill="white"/>
<path fill-rule="evenodd" clip-rule="evenodd" d="M15.4343 2.02893C14.0394 0.679484 11.8256 0.679484 10.4307 2.02893C10.0764 2.37168 9.58373 2.53175 9.09563 2.46271C7.17393 2.1909 5.38294 3.49213 5.04762 5.40377C4.96244 5.88931 4.65797 6.30838 4.22251 6.53943C2.50806 7.44907 1.82396 9.55451 2.67631 11.2982C2.8928 11.741 2.8928 12.259 2.67631 12.7019C1.82396 14.4456 2.50806 16.551 4.22251 17.4606C4.65797 17.6917 4.96244 18.1107 5.04762 18.5963C5.38294 20.5079 7.17393 21.8092 9.09563 21.5373C9.58373 21.4683 10.0764 21.6284 10.4307 21.9711C11.8256 23.3206 14.0394 23.3206 15.4343 21.9711C15.7886 21.6284 16.2812 21.4683 16.7693 21.5373C18.691 21.8092 20.482 20.5079 20.8174 18.5963C20.9025 18.1107 21.207 17.6917 21.6425 17.4606C23.3569 16.551 24.041 14.4456 23.1887 12.7019C22.9722 12.259 22.9722 11.741 23.1887 11.2982C24.041 9.5545 23.3569 7.44907 21.6425 6.53943C21.207 6.30838 20.9025 5.88931 20.8174 5.40377C20.482 3.49213 18.691 2.1909 16.7693 2.46271C16.2812 2.53175 15.7886 2.37168 15.4343 2.02893ZM11.8213 3.46638C12.4408 2.867 13.4241 2.867 14.0437 3.46638C14.8414 4.23805 15.9505 4.59844 17.0494 4.443C17.903 4.32227 18.6985 4.90023 18.8474 5.74932C19.0392 6.84248 19.7247 7.78598 20.7051 8.30615C21.4666 8.71019 21.7704 9.64535 21.3919 10.4198C20.9044 11.4169 20.9044 12.5831 21.3919 13.5802C21.7704 14.3547 21.4666 15.2899 20.7051 15.6939C19.7247 16.2141 19.0392 17.1576 18.8474 18.2507C18.6985 19.0998 17.903 19.6778 17.0494 19.5571C15.9505 19.4016 14.8414 19.762 14.0437 20.5337C13.4241 21.1331 12.4408 21.1331 11.8213 20.5337C11.0236 19.762 9.91444 19.4016 8.81553 19.5571C7.96198 19.6778 7.16648 19.0998 7.01754 18.2507C6.82578 17.1576 6.14029 16.2141 5.15989 15.6939C4.39839 15.2899 4.09453 14.3547 4.47312 13.5802C4.96053 12.5831 4.96053 11.4169 4.47312 10.4198C4.09453 9.64535 4.39839 8.71019 5.15989 8.30615C6.14029 7.78598 6.82578 6.84248 7.01754 5.74932C7.16648 4.90024 7.96198 4.32227 8.81553 4.443C9.91444 4.59844 11.0236 4.23805 11.8213 3.46638Z" fill="white"/>
</svg>
