<svg width="25" height="24" viewBox="0 0 25 24" fill="none" xmlns="http://www.w3.org/2000/svg">
<path fill-rule="evenodd" clip-rule="evenodd" d="M12.933 5.07703L5.62559 8L8.30229 9.07068L8.30622 9.07225L12.933 10.923L17.5596 9.07232L17.5639 9.0706L20.2404 8L12.933 5.07703ZM3.72221 9.39271L5.24042 10L3.72221 10.6073C2.46499 11.1102 2.46499 12.8898 3.72221 13.3927L5.24042 14L3.72221 14.6073C2.46499 15.1102 2.46499 16.8898 3.72221 17.3927L12.3759 20.8542C12.7335 20.9972 13.1325 20.9972 13.4901 20.8542L22.1438 17.3927C23.401 16.8898 23.401 15.1102 22.1438 14.6073L20.6256 14L22.1438 13.3927C23.401 12.8898 23.401 11.1102 22.1438 10.6073L20.6256 10L22.1438 9.39271C23.401 8.88983 23.401 7.11017 22.1438 6.60728L13.4901 3.1458C13.1325 3.00275 12.7335 3.00275 12.3759 3.1458L3.72221 6.60728C2.465 7.11017 2.46499 8.88982 3.72221 9.39271ZM17.5599 13.0722C17.5611 13.0717 17.5624 13.0712 17.5637 13.0707L20.2404 12L17.933 11.077L13.4901 12.8542C13.1325 12.9972 12.7335 12.9972 12.3759 12.8542L7.93301 11.077L5.62559 12L8.30288 13.0709C8.3038 13.0713 8.30471 13.0716 8.30563 13.072L12.933 14.923L17.5599 13.0722ZM7.93301 15.077L12.3759 16.8542C12.7335 16.9972 13.1325 16.9972 13.4901 16.8542L17.933 15.077L20.2404 16L12.933 18.923L5.62559 16L7.93301 15.077Z" fill="white"/>
</svg>
