<svg xmlns="http://www.w3.org/2000/svg" width="24" height="24" viewBox="0 0 24 24" fill="none">
  <path fill-rule="evenodd" clip-rule="evenodd" d="M12 5C9.79084 5 7.99998 6.79086 7.99998 9C7.99998 11.2091 9.79084 13 12 13C14.2091 13 16 11.2091 16 9C16 6.79086 14.2091 5 12 5ZM9.99998 9C9.99998 7.89543 10.8954 7 12 7C13.1045 7 14 7.89543 14 9C14 10.1046 13.1045 11 12 11C10.8954 11 9.99998 10.1046 9.99998 9Z" fill="white"/>
  <path fill-rule="evenodd" clip-rule="evenodd" d="M12 22C10.8631 22 9.22385 21.7313 7.97982 21.1596C7.36958 20.8792 6.7148 20.4632 6.32857 19.8409C6.12468 19.5124 5.99586 19.1251 6.00008 18.6941C6.00425 18.2672 6.13813 17.8623 6.35737 17.4913C7.35984 15.7947 9.43952 14 12 14C14.5604 14 16.6401 15.7947 17.6426 17.4913C17.8618 17.8623 17.9957 18.2672 17.9999 18.6941C18.0041 19.1251 17.8753 19.5124 17.6714 19.8409C17.2852 20.4632 16.6304 20.8792 16.0201 21.1596C14.7761 21.7313 13.1369 22 12 22ZM8.07924 18.5087C8.00265 18.6383 8.00009 18.7027 7.99998 18.7136C7.99989 18.7209 7.99965 18.7407 8.02789 18.7862C8.10729 18.9142 8.33788 19.1231 8.81496 19.3423C9.74558 19.77 11.0888 20 12 20C12.9111 20 14.2544 19.77 15.185 19.3423C15.6621 19.1231 15.8927 18.9142 15.9721 18.7862C16.0003 18.7407 16.0001 18.7214 16 18.7141C15.9999 18.7032 15.9973 18.6383 15.9207 18.5087C15.1435 17.1934 13.6235 16 12 16C10.3765 16 8.85644 17.1934 8.07924 18.5087Z" fill="white"/>
  <path fill-rule="evenodd" clip-rule="evenodd" d="M2.49998 12C2.49998 10.3431 3.84312 9 5.49998 9C7.15683 9 8.49998 10.3431 8.49998 12C8.49998 13.6569 7.15683 15 5.49998 15C3.84312 15 2.49998 13.6569 2.49998 12ZM5.49998 11C4.94769 11 4.49998 11.4477 4.49998 12C4.49998 12.5523 4.94769 13 5.49998 13C6.05226 13 6.49998 12.5523 6.49998 12C6.49998 11.4477 6.05226 11 5.49998 11Z" fill="white"/>
  <path d="M2.89571 19.4446C2.65017 19.9393 2.05008 20.1413 1.55538 19.8957C1.06068 19.6502 0.858703 19.0501 1.10424 18.5554C1.47163 17.8152 2.0277 17.0721 2.72723 16.5034C3.42702 15.9346 4.32375 15.5 5.34715 15.5C5.89943 15.5 6.34715 15.9477 6.34715 16.5C6.34715 17.0523 5.89943 17.5 5.34715 17.5C4.90617 17.5 4.44075 17.688 3.98878 18.0554C3.53653 18.423 3.15121 18.9298 2.89571 19.4446Z" fill="white"/>
  <path fill-rule="evenodd" clip-rule="evenodd" d="M15.81 12C15.81 10.3431 17.1532 9 18.81 9C20.4669 9 21.81 10.3431 21.81 12C21.81 13.6569 20.4669 15 18.81 15C17.1532 15 15.81 13.6569 15.81 12ZM18.81 11C18.2578 11 17.81 11.4477 17.81 12C17.81 12.5523 18.2578 13 18.81 13C19.3623 13 19.81 12.5523 19.81 12C19.81 11.4477 19.3623 11 18.81 11Z" fill="white"/>
  <path d="M22.9001 18.5554C23.1457 19.0501 22.9437 19.6502 22.449 19.8957C21.9543 20.1413 21.3542 19.9393 21.1086 19.4446C20.8531 18.9298 20.4678 18.423 20.0156 18.0554C19.5636 17.688 19.0982 17.5 18.6572 17.5C18.1049 17.5 17.6572 17.0523 17.6572 16.5C17.6572 15.9477 18.1049 15.5 18.6572 15.5C19.6806 15.5 20.5773 15.9346 21.2771 16.5034C21.9767 17.0721 22.5327 17.8152 22.9001 18.5554Z" fill="white"/>
</svg>