<svg xmlns="http://www.w3.org/2000/svg" width="20" height="21" viewBox="0 0 20 21" fill="none">
  <path d="M2.0835 10.5C2.0835 11.1904 2.64314 11.75 3.3335 11.75C4.02385 11.75 4.5835 11.1904 4.5835 10.5C4.5835 9.80964 4.02385 9.25 3.3335 9.25C2.64314 9.25 2.0835 9.80964 2.0835 10.5Z" fill="#98A2B3"/>
  <path d="M10.0002 11.75C9.30981 11.75 8.75016 11.1904 8.75016 10.5C8.75016 9.80964 9.30981 9.25 10.0002 9.25C10.6905 9.25 11.2502 9.80964 11.2502 10.5C11.2502 11.1904 10.6905 11.75 10.0002 11.75Z" fill="#98A2B3"/>
  <path d="M16.6668 11.75C15.9765 11.75 15.4168 11.1904 15.4168 10.5C15.4168 9.80964 15.9765 9.25 16.6668 9.25C17.3572 9.25 17.9168 9.80964 17.9168 10.5C17.9168 11.1904 17.3572 11.75 16.6668 11.75Z" fill="#98A2B3"/>
</svg>