<svg xmlns="http://www.w3.org/2000/svg" width="16" height="16" viewBox="0 0 16 16" fill="none">
  <rect x="0.5" y="0.5" width="15" height="15" rx="2.16667" fill="white" stroke="#98A2B3"/>
  <path d="M6.62752 11.0686C6.69181 11.1329 6.77957 11.1681 6.87046 11.1661C6.96136 11.1642 7.0475 11.1252 7.10894 11.0581L12.3443 5.34685C12.3598 5.32988 12.3862 5.32874 12.4032 5.34429C12.4201 5.35984 12.4213 5.38619 12.4057 5.40316L6.90571 11.4032C6.89803 11.4115 6.88727 11.4164 6.87591 11.4167C6.86454 11.4169 6.85357 11.4125 6.84554 11.4045L4.34554 8.90447C4.32927 8.88819 4.32927 8.86181 4.34554 8.84554C4.36181 8.82927 4.38819 8.82927 4.40446 8.84554L6.62752 11.0686Z" fill="white" stroke="#98A2B3" stroke-width="0.666667" stroke-linecap="round" stroke-linejoin="round"/>
</svg>