<svg xmlns="http://www.w3.org/2000/svg" width="16" height="16" viewBox="0 0 16 16" fill="none">
  <path fill-rule="evenodd" clip-rule="evenodd" d="M9.3335 1.33334C7.86074 1.33334 6.66683 2.52725 6.66683 4.00001V5.33334H4.00016C2.5274 5.33334 1.3335 6.52725 1.3335 8.00001V12C1.3335 13.4728 2.5274 14.6667 4.00016 14.6667H6.66683C8.13959 14.6667 9.3335 13.4728 9.3335 12V10.6667H12.0002C13.4729 10.6667 14.6668 9.47277 14.6668 8.00001V4.00001C14.6668 2.52725 13.4729 1.33334 12.0002 1.33334H9.3335ZM9.3335 9.33334H12.0002C12.7365 9.33334 13.3335 8.73639 13.3335 8.00001V4.00001C13.3335 3.26363 12.7365 2.66668 12.0002 2.66668H9.3335C8.59712 2.66668 8.00016 3.26363 8.00016 4.00001V5.6901C8.79723 6.15118 9.3335 7.01297 9.3335 8.00001V9.33334ZM2.66683 8.00001C2.66683 7.26363 3.26378 6.66668 4.00016 6.66668H6.66683C7.40321 6.66668 8.00016 7.26363 8.00016 8.00001V12C8.00016 12.7364 7.40321 13.3333 6.66683 13.3333H4.00016C3.26378 13.3333 2.66683 12.7364 2.66683 12V8.00001Z" fill="black"/>
</svg>