        <svg xmlns="http://www.w3.org/2000/svg" width="17" height="17" viewBox="0 0 17 17" fill="none">
            <path
                d="M13.8333 6.5H7.83333C7.09695 6.5 6.5 7.09695 6.5 7.83333V13.8333C6.5 14.5697 7.09695 15.1667 7.83333 15.1667H13.8333C14.5697 15.1667 15.1667 14.5697 15.1667 13.8333V7.83333C15.1667 7.09695 14.5697 6.5 13.8333 6.5Z"
                stroke="#98A2B3" stroke-width="1.33333" stroke-linecap="round" stroke-linejoin="round" />
            <path
                d="M3.83334 10.5H3.16667C2.81305 10.5 2.47391 10.3595 2.22386 10.1095C1.97381 9.85942 1.83334 9.52028 1.83334 9.16666V3.16666C1.83334 2.81304 1.97381 2.4739 2.22386 2.22385C2.47391 1.9738 2.81305 1.83333 3.16667 1.83333H9.16667C9.52029 1.83333 9.85943 1.9738 10.1095 2.22385C10.3595 2.4739 10.5 2.81304 10.5 3.16666V3.83333"
                stroke="#98A2B3" stroke-width="1.33333" stroke-linecap="round" stroke-linejoin="round" />
        </svg>