<svg xmlns="http://www.w3.org/2000/svg" width="16" height="16" viewBox="0 0 16 16" fill="none">
  <path d="M13.9997 3.33333H1.99967C1.6219 3.33333 1.33301 3.04444 1.33301 2.66667C1.33301 2.28889 1.6219 2 1.99967 2H13.9997C14.3775 2 14.6663 2.28889 14.6663 2.66667C14.6663 3.04444 14.3775 3.33333 13.9997 3.33333Z" fill="#98A2B3"/>
  <path d="M13.9997 6.88889H1.99967C1.6219 6.88889 1.33301 6.6 1.33301 6.22222C1.33301 5.84445 1.6219 5.55556 1.99967 5.55556H13.9997C14.3775 5.55556 14.6663 5.84445 14.6663 6.22222C14.6663 6.6 14.3775 6.88889 13.9997 6.88889Z" fill="#98A2B3"/>
  <path d="M13.9997 10.4444H1.99967C1.6219 10.4444 1.33301 10.1556 1.33301 9.77778C1.33301 9.4 1.6219 9.11111 1.99967 9.11111H13.9997C14.3775 9.11111 14.6663 9.4 14.6663 9.77778C14.6663 10.1556 14.3775 10.4444 13.9997 10.4444Z" fill="#98A2B3"/>
  <path d="M9.99967 14H1.99967C1.6219 14 1.33301 13.7111 1.33301 13.3333C1.33301 12.9556 1.6219 12.6667 1.99967 12.6667H9.99967C10.3775 12.6667 10.6663 12.9556 10.6663 13.3333C10.6663 13.7111 10.3775 14 9.99967 14Z" fill="#98A2B3"/>
</svg>