<svg xmlns="http://www.w3.org/2000/svg" width="16" height="16" viewBox="0 0 16 16" fill="none">
  <path fill-rule="evenodd" clip-rule="evenodd" d="M2.7929 1.79289C2.98043 1.60535 3.23478 1.5 3.5 1.5H9.5C9.6326 1.5 9.7598 1.55268 9.85355 1.64645L13.3535 5.14645C13.4473 5.2402 13.5 5.3674 13.5 5.5V13.5C13.5 13.7652 13.3946 14.0196 13.2071 14.2071C13.0196 14.3946 12.7652 14.5 12.5 14.5H3.5C3.23478 14.5 2.98043 14.3946 2.7929 14.2071C2.60536 14.0196 2.5 13.7652 2.5 13.5V2.5C2.5 2.23478 2.60536 1.98043 2.7929 1.79289ZM9.2929 2.5H3.5V13.5H12.5V5.7071L9.2929 2.5Z" fill="#98A2B3"/>
  <path fill-rule="evenodd" clip-rule="evenodd" d="M9.5 1.5C9.77615 1.5 10 1.72386 10 2V5H13C13.2761 5 13.5 5.22385 13.5 5.5C13.5 5.77615 13.2761 6 13 6H9.5C9.22385 6 9 5.77615 9 5.5V2C9 1.72386 9.22385 1.5 9.5 1.5Z" fill="#98A2B3"/>
  <path fill-rule="evenodd" clip-rule="evenodd" d="M5.5 8.5C5.5 8.22385 5.72385 8 6 8H10C10.2761 8 10.5 8.22385 10.5 8.5C10.5 8.77615 10.2761 9 10 9H6C5.72385 9 5.5 8.77615 5.5 8.5Z" fill="#98A2B3"/>
  <path fill-rule="evenodd" clip-rule="evenodd" d="M5.5 10.5C5.5 10.2239 5.72385 10 6 10H10C10.2761 10 10.5 10.2239 10.5 10.5C10.5 10.7761 10.2761 11 10 11H6C5.72385 11 5.5 10.7761 5.5 10.5Z" fill="#98A2B3"/>
</svg>